<svg xmlns="http://www.w3.org/2000/svg" width="1200" height="800" viewBox="0 0 1200 800" role="img">
<title>Category landscape</title><desc>Directional total toothpaste context — not audited premium TAM</desc>
<rect width="1200" height="800" fill="#f4f8ff"/>
<text x="70" y="78" font-family="Arial, sans-serif" font-size="18" font-weight="700" letter-spacing="2" fill="#0067c5">BIZDRIVE • PREMIUM TOOTHPASTE</text>
<text x="70" y="130" font-family="Arial, sans-serif" font-size="42" font-weight="700" fill="#0b1f3a">Category landscape</text>
<text x="70" y="165" font-family="Arial, sans-serif" font-size="20" fill="#4b607b">Directional total toothpaste context — not audited premium TAM</text>

<g transform="translate(90 245)"><rect width="460" height="330" rx="28" fill="#ffffff" stroke="#c7d9ee"/><text x="42" y="72" font-family="Arial" font-size="78" font-weight="700" fill="#0b1f3a">10.2–12B</text><text x="44" y="112" font-family="Arial" font-size="24" fill="#4b607b">THB total toothpaste context</text><path d="M45 245 C125 205 190 230 255 170 S380 115 420 75" fill="none" stroke="#0067c5" stroke-width="10" stroke-linecap="round"/><circle cx="420" cy="75" r="12" fill="#9a6500"/><text x="44" y="295" font-family="Arial" font-size="18" fill="#9a6500">Trade-press range • methodology undisclosed</text></g>
<g transform="translate(640 235)" font-family="Arial"><text x="0" y="20" font-size="20" font-weight="700" fill="#0b1f3a">PRICE / PROPOSITION LADDER</text><rect x="0" y="70" width="380" height="48" rx="10" fill="#174ea6"/><text x="18" y="101" font-size="17" font-weight="700" fill="white">Mass &amp; herbal anchors</text><rect x="0" y="146" width="332" height="48" rx="10" fill="#005eb8"/><text x="18" y="177" font-size="17" font-weight="700" fill="white">Mass-premium whitening</text><rect x="0" y="222" width="284" height="48" rx="10" fill="#0067c5"/><text x="18" y="253" font-size="17" font-weight="700" fill="white">Thai premium ritual</text><rect x="0" y="298" width="236" height="48" rx="10" fill="#0b4f9c"/><text x="18" y="329" font-size="17" font-weight="700" fill="white">Imported specialty</text></g>
<text x="70" y="700" font-family="Arial" font-size="24" font-weight="700" fill="#0b1f3a">Opportunity ≠ empty price point</text><text x="70" y="738" font-family="Arial" font-size="20" fill="#4b607b">Winning requires desirability, proof, economics, compliance and route-to-market.</text>
</svg>