<svg xmlns="http://www.w3.org/2000/svg" width="1200" height="800" viewBox="0 0 1200 800" role="img">
<title>12-week execution track</title><desc>Truth → proposition pilot → economics and repeat</desc>
<rect width="1200" height="800" fill="#f7f3eb"/>
<text x="70" y="78" font-family="Arial, sans-serif" font-size="18" font-weight="700" letter-spacing="2" fill="#137f73">BIZDRIVE • PREMIUM TOOTHPASTE</text>
<text x="70" y="130" font-family="Arial, sans-serif" font-size="42" font-weight="700" fill="#25211d">12-week execution track</text>
<text x="70" y="165" font-family="Arial, sans-serif" font-size="20" fill="#756e66">Truth → proposition pilot → economics and repeat</text>
<line x1="105" y1="410" x2="1073" y2="410" stroke="#c9c1b7" stroke-width="8"/><circle cx="105" cy="410" r="18" fill="#137f73"/><text x="105" y="465" text-anchor="middle" font-family="Arial" font-size="13" fill="#25211d">W1</text><circle cx="193" cy="410" r="18" fill="#137f73"/><text x="193" y="465" text-anchor="middle" font-family="Arial" font-size="13" fill="#25211d">W2</text><circle cx="281" cy="410" r="18" fill="#137f73"/><text x="281" y="465" text-anchor="middle" font-family="Arial" font-size="13" fill="#25211d">W3</text><circle cx="369" cy="410" r="28" fill="#137f73"/><text x="369" y="465" text-anchor="middle" font-family="Arial" font-size="13" fill="#25211d">W4</text><circle cx="457" cy="410" r="18" fill="#df6b4f"/><text x="457" y="465" text-anchor="middle" font-family="Arial" font-size="13" fill="#25211d">W5</text><circle cx="545" cy="410" r="18" fill="#df6b4f"/><text x="545" y="465" text-anchor="middle" font-family="Arial" font-size="13" fill="#25211d">W6</text><circle cx="633" cy="410" r="18" fill="#df6b4f"/><text x="633" y="465" text-anchor="middle" font-family="Arial" font-size="13" fill="#25211d">W7</text><circle cx="721" cy="410" r="28" fill="#df6b4f"/><text x="721" y="465" text-anchor="middle" font-family="Arial" font-size="13" fill="#25211d">W8</text><circle cx="809" cy="410" r="18" fill="#5888be"/><text x="809" y="465" text-anchor="middle" font-family="Arial" font-size="13" fill="#25211d">W9</text><circle cx="897" cy="410" r="18" fill="#5888be"/><text x="897" y="465" text-anchor="middle" font-family="Arial" font-size="13" fill="#25211d">W10</text><circle cx="985" cy="410" r="18" fill="#5888be"/><text x="985" y="465" text-anchor="middle" font-family="Arial" font-size="13" fill="#25211d">W11</text><circle cx="1073" cy="410" r="28" fill="#5888be"/><text x="1073" y="465" text-anchor="middle" font-family="Arial" font-size="13" fill="#25211d">W12</text><text x="105" y="300" font-family="Arial" font-size="24" font-weight="700" fill="#137f73">1–4 • TRUTH &amp; CONTROL</text><text x="430" y="345" font-family="Arial" font-size="24" font-weight="700" fill="#df6b4f">5–8 • PROPOSITION</text><text x="770" y="300" font-family="Arial" font-size="24" font-weight="700" fill="#5888be">9–12 • ECONOMICS / REPEAT</text><text x="105" y="560" font-family="Arial" font-size="18" fill="#756e66">Owner decision gates at readiness, mid-trial and end-trial.</text>
</svg>